<svg version="1.1" id="Layer_1" xmlns="http://www.w3.org/2000/svg" xmlns:xlink="http://www.w3.org/1999/xlink" x="0px" y="0px"
	 width="100%" viewBox="0 0 288 288" enable-background="new 0 0 288 288" xml:space="preserve">
<path fill="#000000" opacity="1.000000" stroke="none" 
	d="
M121.109818,178.682846 
	C130.689194,178.008560 139.551086,179.718231 148.240524,181.972122 
	C159.257797,184.829803 170.019501,183.698898 180.836960,181.252548 
	C182.238388,180.935608 183.649963,180.106567 185.142578,181.032623 
	C185.636871,182.938873 184.063248,183.717773 183.103226,184.741837 
	C175.132324,193.244278 167.155640,201.741898 159.109940,210.173462 
	C152.828400,216.756256 147.063339,216.890396 140.668488,210.372986 
	C132.039932,201.579086 123.606232,192.593964 115.092728,183.687271 
	C114.179871,182.732269 113.165619,181.821976 113.204750,180.200150 
	C115.281433,177.811401 118.119270,178.988007 121.109818,178.682846 
z"/>
<path fill="#000000" opacity="1.000000" stroke="none" 
	d="
M117.634705,142.449341 
	C118.967270,145.873505 120.669724,148.777985 120.938431,152.126648 
	C114.616447,154.864624 112.238914,153.966583 109.889648,147.940979 
	C107.896042,142.827576 105.839737,137.730515 104.098557,132.529999 
	C103.146461,129.686295 101.348396,129.056229 98.756516,129.389099 
	C95.762672,129.773636 96.347450,132.135590 96.317207,134.013397 
	C96.236794,139.005508 96.196030,144.001999 96.319458,148.992279 
	C96.398109,152.172348 95.140244,153.485001 91.905846,153.419891 
	C88.885002,153.359070 86.728081,152.972748 86.753723,149.156631 
	C86.855499,134.010864 86.380013,118.847946 86.946556,103.722397 
	C87.474518,89.626701 100.448471,82.514465 112.042603,89.307938 
	C113.822525,90.350861 115.193474,91.730904 116.329742,93.398064 
	C121.729050,101.320053 120.709473,118.252235 114.154663,125.189705 
	C112.327606,127.123436 112.161972,128.712036 113.107971,130.953003 
	C114.659294,134.627914 116.026321,138.380630 117.634705,142.449341 
M96.317932,105.854218 
	C96.326187,109.671906 96.367928,113.489922 96.330032,117.307152 
	C96.307640,119.563629 97.279472,120.510323 99.587471,120.692223 
	C104.595703,121.086952 108.806908,119.184326 109.436089,115.129723 
	C110.657715,107.257111 110.914932,98.713120 105.973846,96.732025 
	C103.686844,95.815063 101.444290,95.769005 99.417442,97.445091 
	C97.054939,99.398750 96.134514,101.949539 96.317932,105.854218 
z"/>
<path fill="#000000" opacity="1.000000" stroke="none" 
	d="
M170.219757,111.000168 
	C170.222504,119.997383 170.455627,128.502243 170.175797,136.990189 
	C169.709000,151.148987 157.445084,158.808136 145.558105,152.559052 
	C140.733200,150.022583 138.168839,145.799652 137.716660,140.544540 
	C136.329025,124.417480 137.329559,108.249702 137.184494,92.099930 
	C137.152893,88.581642 139.107452,87.616470 142.337082,87.693130 
	C145.817459,87.775742 146.377533,89.725731 146.365479,92.599251 
	C146.310196,105.761452 146.362656,118.924065 146.334778,132.086441 
	C146.328751,134.936371 146.511536,137.746216 147.300797,140.494202 
	C148.105057,143.294479 149.802765,145.176743 152.793961,145.585205 
	C155.669586,145.977859 157.498856,144.337341 158.982605,142.172241 
	C160.464630,140.009674 160.677170,137.556976 160.670746,135.008026 
	C160.635925,121.179214 160.703339,107.350021 160.628433,93.521538 
	C160.610214,90.156311 160.932785,87.614204 165.311798,87.672729 
	C169.491669,87.728584 170.263168,90.044212 170.210876,93.506233 
	C170.125320,99.169563 170.207916,104.835419 170.219757,111.000168 
z"/>
<path fill="#000000" opacity="1.000000" stroke="none" 
	d="
M196.673538,120.323624 
	C192.109955,116.481964 188.866013,112.260147 187.462143,106.639290 
	C185.273483,97.876343 189.227280,90.021889 197.360245,87.590820 
	C206.059189,84.990555 214.033279,88.947655 217.019150,97.396248 
	C217.515686,98.801186 217.971207,100.265121 218.126328,101.735489 
	C218.343170,103.791122 219.113510,106.382195 215.845795,106.799919 
	C213.046509,107.157761 209.979355,107.666283 209.078003,103.706253 
	C208.856659,102.733780 208.799500,101.713921 208.492355,100.772804 
	C207.400864,97.428497 205.367294,95.127655 201.534851,95.881660 
	C197.348755,96.705246 195.790131,99.649498 196.437271,103.669716 
	C197.107864,107.835670 199.843170,110.777885 202.832611,113.517815 
	C207.727051,118.003738 213.039047,122.072990 216.532547,127.922203 
	C222.756622,138.343277 218.962967,150.603058 208.448898,153.774994 
	C197.515411,157.073456 187.315796,150.151901 186.708908,138.992020 
	C186.580093,136.623260 186.368561,134.110413 189.845276,133.925781 
	C192.582413,133.780457 195.234512,133.575012 195.811996,137.385986 
	C196.079178,139.149170 196.706421,140.956528 197.588013,142.506287 
	C199.170990,145.289032 201.853439,146.339767 204.862289,145.434387 
	C207.759293,144.562683 209.512619,142.526459 209.750748,139.228195 
	C210.054962,135.014496 208.151047,131.801804 205.479828,128.956680 
	C202.749130,126.048225 199.795547,123.349045 196.673538,120.323624 
z"/>
<path fill="#000000" opacity="1.000000" stroke="none" 
	d="
M63.352554,89.396729 
	C68.212952,92.856476 70.146042,97.404312 70.490150,102.853279 
	C70.636131,105.164940 70.345863,106.969589 67.575150,106.921532 
	C65.262520,106.881424 62.325745,107.977470 61.594173,104.237907 
	C61.371521,103.099785 61.038960,101.974243 60.656223,100.878029 
	C59.473137,97.489510 57.256573,95.590126 53.478531,96.190727 
	C49.926830,96.755356 48.487610,99.133476 48.257122,102.483627 
	C48.222870,102.981529 48.176086,103.480194 48.175610,103.978546 
	C48.164944,115.125931 48.160740,126.273315 48.153530,137.420700 
	C48.150757,141.707397 49.550575,145.251602 54.332237,145.528076 
	C58.758873,145.784027 61.188667,142.550903 61.456493,138.658707 
	C61.801327,133.647354 64.743042,133.383804 68.278046,133.988815 
	C72.710365,134.747406 71.235985,138.018173 70.608215,140.663162 
	C68.389008,150.013489 63.355225,154.358658 54.905052,154.372681 
	C45.379036,154.388489 38.992561,148.676300 38.759224,139.151749 
	C38.457771,126.846825 38.369030,114.519051 38.764076,102.219597 
	C39.167446,89.660904 51.065136,83.467049 63.352554,89.396729 
z"/>
<path fill="#000000" opacity="1.000000" stroke="none" 
	d="
M250.981293,87.752518 
	C253.805496,87.748001 256.139160,87.841331 258.461426,87.718719 
	C262.078796,87.527740 263.431061,89.056244 263.427765,92.735222 
	C263.424316,96.587700 261.104065,96.827881 258.523346,96.427589 
	C253.132919,95.591492 252.137054,98.121918 252.218872,102.927139 
	C252.473663,117.892166 252.261749,132.864578 252.341904,147.833542 
	C252.360107,151.234589 251.991394,153.518158 247.599152,153.482697 
	C243.329468,153.448212 242.725250,151.343750 242.744095,147.855499 
	C242.825912,132.720276 242.632614,117.582474 242.840057,102.449730 
	C242.900436,98.045349 241.826233,95.780884 237.019958,96.371880 
	C233.803055,96.767441 231.538162,95.968414 231.639389,91.891296 
	C231.736847,87.966347 234.164001,87.779099 237.013275,87.782768 
	C241.504044,87.788544 245.994843,87.764809 250.981293,87.752518 
z"/>
</svg>